<?xml version="1.0" encoding="UTF-8"?>
<!DOCTYPE svg PUBLIC "-//W3C//DTD SVG 1.1//EN" "http://www.w3.org/Graphics/SVG/1.1/DTD/svg11.dtd">
<!-- Creator: CorelDRAW X7 -->
<svg xmlns="http://www.w3.org/2000/svg" xml:space="preserve" width="100.738mm" height="87.2852mm" version="1.1" style="shape-rendering:geometricPrecision; text-rendering:geometricPrecision; image-rendering:optimizeQuality; fill-rule:evenodd; clip-rule:evenodd"
viewBox="0 0 10074 8729"
 xmlns:xlink="http://www.w3.org/1999/xlink">
 <defs>
  <style type="text/css">
   <![CDATA[
    .str0 {stroke:#CDD5D7;stroke-width:7.61999}
    .str4 {stroke:#424953;stroke-width:105.83}
    .str3 {stroke:#484F59;stroke-width:105.83}
    .str5 {stroke:#484F59;stroke-width:105.83}
    .str1 {stroke:#FF8F8F;stroke-width:105.83}
    .str2 {stroke:#A33829;stroke-width:105.83}
    .fil1 {fill:none}
    .fil9 {fill:#009846}
    .fil7 {fill:#424953}
    .fil16 {fill:#484F59}
    .fil13 {fill:#5EB4E7}
    .fil15 {fill:#A33829}
    .fil8 {fill:#B3E0A3}
    .fil2 {fill:#B7BEC0}
    .fil10 {fill:#CCE7ED}
    .fil0 {fill:#CDD5D7}
    .fil12 {fill:#DECEED}
    .fil4 {fill:#E5E8EC}
    .fil6 {fill:#F8C44F}
    .fil11 {fill:#F8C44F}
    .fil14 {fill:#FF8F8F}
    .fil3 {fill:white}
    .fil5 {fill:#484F59;fill-rule:nonzero}
   ]]>
  </style>
 </defs>
 <g id="Warstwa_x0020_1">
  <metadata id="CorelCorpID_0Corel-Layer"/>
  <g id="_2121671999424">
   <path class="fil0 str0" d="M3807 152c-45,-4 -91,-6 -137,-7l3 -141c49,1 97,3 145,7l-11 141zm-413 0l-11 -140c49,-4 97,-7 145,-8l4 141c-46,1 -92,4 -138,7zm687 34c-45,-8 -91,-15 -136,-20l17 -141c48,7 96,14 144,22l-25 139zm-960 2l-25 -139c47,-9 95,-16 143,-22l18 140c-45,5 -91,13 -136,21zm1228 61c-44,-13 -89,-25 -133,-35l32 -137c46,11 94,23 140,36l-39 136zm-1496 2l-39 -135c46,-14 93,-26 140,-37l32 137c-44,10 -89,22 -133,35zm1756 88c-42,-17 -86,-34 -129,-48l46 -134c46,16 92,33 136,51l-53 131zm-2016 3l-53 -131c44,-18 90,-35 136,-51l46 133c-43,15 -86,32 -129,49zm2266 114c-40,-22 -82,-43 -123,-62l60 -128c43,21 87,42 129,65l-66 125zm-2514 3l-67 -124c42,-23 86,-45 129,-65l61 127c-42,20 -83,41 -123,62zm2751 139c-38,-26 -78,-51 -117,-74l73 -121c41,24 82,50 122,77l-78 118zm-2987 3l-79 -117c40,-27 81,-53 122,-78l73 121c-39,24 -78,49 -116,74zm3207 162c-35,-29 -71,-58 -108,-86l85 -113c38,29 77,60 114,90l-91 109zm-3427 4l-90 -109c37,-31 75,-61 113,-90l85 113c-36,27 -73,56 -108,86zm3630 183c-32,-33 -66,-65 -99,-96l96 -104c35,33 70,67 104,101l-101 99zm-3832 4l-101 -98c33,-35 68,-69 104,-102l96 104c-34,31 -67,63 -99,96zm4014 202c-29,-36 -58,-71 -89,-105l106 -94c32,36 63,74 93,111l-110 88zm-4196 5l-110 -87c30,-38 61,-76 93,-112l106 93c-31,35 -60,70 -89,106zm4356 219c-25,-38 -51,-77 -77,-114l115 -82c27,39 55,79 81,120l-119 76zm-4515 6l-119 -76c25,-40 53,-81 81,-120l115 81c-27,38 -53,76 -77,115zm4651 233c-21,-41 -42,-82 -65,-121l123 -70c23,42 46,85 68,128l-126 63zm-4787 7l-126 -63c21,-43 44,-87 68,-129l123 70c-23,40 -45,81 -65,122zm4898 245c-17,-43 -34,-86 -52,-127l129 -57c19,44 37,89 55,134l-132 50zm-5008 8l-133 -50c17,-45 36,-90 55,-135l129 57c-18,42 -36,85 -51,128zm5092 254c-12,-44 -25,-88 -39,-132l135 -43c14,46 28,93 40,139l-136 36zm-5176 8l-136 -35c12,-47 25,-94 40,-140l134 43c-13,43 -26,88 -38,132zm5233 262c-8,-45 -16,-91 -25,-136l138 -29c10,47 19,95 26,143l-139 22zm-5289 8l-139 -21c7,-48 16,-97 26,-143l138 28c-10,45 -18,90 -25,136zm5317 265c-2,-45 -6,-91 -11,-137l141 -15c5,48 8,97 11,145l-141 7zm-5344 9l-141 -7c2,-48 6,-97 11,-145l140 15c-5,45 -8,91 -10,137zm5485 280l-141 -7c3,-46 4,-92 4,-138l0 -6 141 0 0 7c0,47 -1,96 -4,144zm-5626 3c-3,-48 -4,-97 -4,-145l141 0c0,46 2,92 4,138l-141 7zm5597 285l-140 -21c7,-45 13,-91 18,-137l140 14c-5,49 -11,97 -18,144zm-5567 3c-8,-47 -14,-96 -19,-144l140 -14c5,45 11,91 18,137l-139 21zm5508 281l-137 -36c12,-44 23,-89 32,-134l138 29c-10,47 -21,95 -33,141zm-5449 3c-12,-47 -24,-94 -33,-141l138 -29c9,45 20,90 31,134l-136 36zm5361 274l-132 -50c16,-43 31,-87 45,-130l134 42c-14,46 -30,92 -47,138zm-5273 2c-17,-45 -33,-91 -47,-137l134 -43c14,44 29,88 45,130l-132 50zm5156 264l-126 -63c20,-41 40,-83 59,-125l129 56c-20,45 -40,89 -62,132zm-5039 1c-22,-43 -43,-87 -62,-131l129 -56c19,41 38,83 59,124l-126 63zm4896 251l-119 -75c25,-39 48,-79 71,-119l123 70c-24,42 -49,84 -75,124zm-4753 1c-26,-41 -51,-82 -75,-124l123 -70c22,40 46,80 71,118l-119 76zm4585 236l-111 -88c28,-36 56,-73 83,-110l115 82c-28,39 -57,78 -87,116zm-4417 0c-30,-37 -59,-76 -87,-116l115 -82c26,38 54,75 82,110l-110 88zm4225 217l-101 -98c32,-33 63,-67 94,-101l106 93c-32,36 -65,72 -99,106zm-4034 1c-33,-35 -66,-70 -98,-107l106 -93c30,35 62,68 93,101l-101 99zm3821 196l-90 -108c35,-30 70,-60 103,-91l96 104c-35,32 -71,64 -109,95zm-3608 1c-37,-31 -73,-63 -109,-96l96 -104c34,31 68,62 104,91l-91 109zm3377 173l-79 -117c38,-25 75,-52 112,-79l85 112c-39,29 -78,57 -118,84zm-3145 1c-40,-27 -80,-56 -118,-84l85 -113c36,27 74,54 112,80l-79 117zm2896 149l-66 -125c41,-21 81,-44 120,-68l72 121c-41,25 -83,49 -126,72zm-2647 0c-42,-22 -85,-46 -126,-71l72 -121c40,24 80,46 120,68l-66 124zm2385 123l-53 -131c42,-17 85,-36 126,-55l60 128c-44,20 -88,40 -133,58zm-2122 1c-45,-19 -90,-38 -133,-59l60 -127c41,19 83,38 126,55l-53 131zm1849 94l-40 -136c44,-12 89,-27 131,-41l47 133c-45,15 -92,30 -138,44zm-1575 1c-46,-14 -93,-28 -138,-44l46 -134c43,15 88,29 131,42l-39 136zm1292 65l-25 -138c45,-9 91,-18 135,-29l32 138c-46,11 -94,21 -142,29zm-1009 1c-48,-9 -96,-19 -142,-29l32 -138c44,11 90,20 135,28l-25 139zm722 36l-11 -140c46,-4 92,-8 137,-14l18 140c-48,6 -96,11 -144,14zm-435 1c-48,-4 -96,-9 -144,-15l18 -140c45,6 91,11 137,14l-11 141zm220 8c-25,0 -50,0 -75,-1l3 -141c24,0 48,1 72,1 22,0 44,-1 66,-1l4 141c-23,1 -47,1 -70,1z"/>
   <g>
    <line class="fil1 str1" x1="359" y1="5304" x2="359" y2= "5410" />
    <line class="fil1 str1" x1="359" y1="5304" x2="359" y2= "5410" />
    <line class="fil1 str1" x1="692" y1="5496" x2="600" y2= "5549" />
    <line class="fil1 str1" x1="692" y1="5880" x2="600" y2= "5827" />
    <line class="fil1 str1" x1="359" y1="6072" x2="359" y2= "5967" />
    <line class="fil1 str1" x1="26" y1="5880" x2="118" y2= "5827" />
    <line class="fil1 str1" x1="26" y1="5496" x2="118" y2= "5549" />
   </g>
   <g>
    <line class="fil1 str2" x1="9715" y1="5321" x2="9715" y2= "5427" />
    <line class="fil1 str2" x1="9715" y1="5321" x2="9715" y2= "5427" />
    <line class="fil1 str2" x1="10047" y1="5513" x2="9956" y2= "5566" />
    <line class="fil1 str2" x1="10047" y1="5897" x2="9956" y2= "5845" />
    <line class="fil1 str2" x1="9715" y1="6089" x2="9715" y2= "5984" />
    <line class="fil1 str2" x1="9382" y1="5897" x2="9473" y2= "5845" />
    <line class="fil1 str2" x1="9382" y1="5513" x2="9473" y2= "5566" />
   </g>
   <path class="fil2 str3" d="M8716 5575l0 -4009c0,-103 -84,-188 -188,-188l-6477 0c-104,0 -188,85 -188,188l0 4009 6853 0z"/>
   <polygon class="fil3 str4" points="2185,5244 8395,5244 8395,1705 2185,1705 "/>
   <path class="fil3 str4" d="M1858 5571l0 578c0,110 113,234 224,234l6462 0c111,0 178,-114 178,-225l0 -587 -6864 0z"/>
   <path class="fil4" d="M6365 7075c-61,-26 -134,-60 -178,-83 -75,-42 -90,-47 -118,-190 -31,-156 -6,-263 -18,-407l-1520 -7c-12,143 14,258 -17,414 -29,143 -49,148 -124,190 -43,23 -115,56 -176,82l0 0 2151 1z"/>
   <path class="fil1 str4" d="M6365 7075c-61,-26 -134,-60 -178,-83 -75,-42 -90,-47 -118,-190 -31,-156 -6,-263 -18,-407l-1520 -7c-12,143 14,258 -17,414 -29,143 -49,148 -124,190 -43,23 -115,56 -176,82l0 0"/>
   <line class="fil1 str4" x1="4022" y1="7075" x2="6557" y2= "7075" />
   <line class="fil1 str3" x1="3286" y1="7075" x2="1256" y2= "7075" />
   <g>
    <polygon class="fil5" points="6844,7022 9841,7022 9841,7128 6844,7128 "/>
   </g>
   <line class="fil1 str3" x1="3845" y1="7075" x2="3434" y2= "7075" />
   <path class="fil6" d="M2509 5828l340 -289 256 -220c30,-26 69,-60 109,-94l253 -218 -958 821z"/>
   <path class="fil6" d="M4421 5007l254 218c39,34 78,68 109,94l256 220 365 314 -984 -846z"/>
   <polygon class="fil3" points="5148,5244 2741,5244 2741,3197 5148,3197 "/>
   <path class="fil7" d="M2788 5204l2313 0 0 -1960 -2313 0 0 1960zm2407 94l-2501 0 0 -2148 2501 0 0 2148z"/>
   <polygon class="fil0" points="3060,3708 3060,3578 4227,3578 4227,3708 "/>
   <polygon class="fil0" points="3060,3930 3060,3799 4700,3799 4700,3930 "/>
   <g id="_2119766629600">
    <polygon class="fil8" points="3093,3325 3093,3244 3306,3244 3306,3325 "/>
    <polygon class="fil9" points="3519,3325 3519,3244 3306,3244 3306,3325 "/>
    <polygon class="fil10" points="3519,3325 3519,3244 3731,3244 3731,3325 "/>
    <polygon class="fil11" points="3944,3325 3944,3244 3731,3244 3731,3325 "/>
    <polygon class="fil12" points="3944,3325 3944,3244 4157,3244 4157,3325 "/>
    <polygon class="fil13" points="4370,3325 4370,3244 4157,3244 4157,3325 "/>
    <polygon class="fil14" points="4370,3325 4370,3244 4582,3244 4582,3325 "/>
    <polygon class="fil15" points="4795,3325 4795,3244 4582,3244 4582,3325 "/>
   </g>
   <polygon class="fil0" points="3060,4162 3060,4032 4595,4032 4595,4162 "/>
   <polygon class="fil0" points="3060,4384 3060,4253 4700,4253 4700,4384 "/>
   <polygon class="fil0" points="3060,4616 3060,4486 4227,4486 4227,4616 "/>
   <polygon class="fil0" points="3060,4838 3060,4708 4700,4708 4700,4838 "/>
   <line class="fil1 str5" x1="3792" y1="4168" x2="3958" y2= "4263" />
   <line class="fil1 str5" x1="4198" y1="4599" x2="4470" y2= "4871" />
   <g id="_2121672014208">
    <line class="fil1 str5" x1="3590" y1="3855" x2="3590" y2= "3664" />
    <line class="fil1 str5" x1="3409" y1="3973" x2="3244" y2= "3877" />
    <line class="fil1 str5" x1="3421" y1="4187" x2="3255" y2= "4283" />
    <line class="fil1 str5" x1="3612" y1="4285" x2="3612" y2= "4476" />
    <line class="fil1 str5" x1="3781" y1="3953" x2="3947" y2= "3857" />
    <polygon class="fil3 str5" points="3699,4100 4501,4440 4179,4580 4038,4902 "/>
   </g>
   <polygon class="fil0" points="7852,5191 7852,3240 5539,3240 5539,5191 5445,5191 5445,3146 7946,3146 7946,5191 "/>
   <polygon class="fil0" points="6499,3708 6499,3578 7325,3578 7325,3708 "/>
   <polygon class="fil0" points="6499,3930 6499,3799 7659,3799 7659,3930 "/>
   <polygon class="fil0" points="6499,4162 6499,4032 7585,4032 7585,4162 "/>
   <polygon class="fil0" points="6499,4384 6499,4253 7659,4253 7659,4384 "/>
   <polygon class="fil0" points="6499,4642 6499,4512 7659,4512 7659,4642 "/>
   <g id="_2121672010304">
    <polygon class="fil8" points="5538,3484 5618,3484 5618,3697 5538,3697 "/>
    <polygon class="fil9" points="5538,3910 5618,3910 5618,3697 5538,3697 "/>
    <polygon class="fil10" points="5538,3910 5618,3910 5618,4122 5538,4122 "/>
    <polygon class="fil11" points="5538,4335 5618,4335 5618,4122 5538,4122 "/>
    <polygon class="fil12" points="5538,4335 5618,4335 5618,4548 5538,4548 "/>
    <polygon class="fil13" points="5538,4761 5618,4761 5618,4548 5538,4548 "/>
    <polygon class="fil14" points="5538,4761 5618,4761 5618,4973 5538,4973 "/>
    <polygon class="fil15" points="5538,5186 5618,5186 5618,4973 5538,4973 "/>
   </g>
   <polygon class="fil0" points="5721,3708 5721,3578 6243,3578 6243,3708 "/>
   <polygon class="fil0" points="5721,3930 5721,3799 6127,3799 6127,3930 "/>
   <polygon class="fil0" points="5721,4168 5721,4037 6127,4037 6127,4168 "/>
   <g id="_2121671997856">
    <g>
     <path class="fil0" d="M6437 5699l0 -227c0,-256 577,-463 833,-466l0 0 -2265 -2 0 1c-256,3 -418,211 -418,467l0 227 1850 0z"/>
     <path class="fil16" d="M6402 5663l-1780 0 0 -191c0,-252 158,-429 383,-432l11 0 1904 1c-253,84 -518,238 -518,431l0 191zm-1851 71l1922 0 0 -262c0,-222 541,-427 797,-430l35 -1 0 -70 -35 0 -2300 -2 0 2c-245,21 -419,226 -419,501l0 262z"/>
     <path class="fil3" d="M7697 8104l0 -2632c0,-256 -206,-464 -462,-467l0 -1 -2219 0 0 1c255,3 380,211 380,467l0 2632c0,325 264,589 590,589 690,0 2144,0 2144,0l0 -21c-250,-68 -433,-297 -433,-568z"/>
     <path class="fil16" d="M7232 5040l3 0c235,3 426,197 426,432l0 2632c0,235 134,448 337,554l-2012 0c-306,0 -554,-249 -554,-554l0 -2632c0,-197 -69,-349 -187,-432l1987 0zm898 3689c10,0 19,-4 25,-11 7,-6 10,-15 10,-25l0 -21c0,-16 -10,-30 -25,-34 -240,-66 -408,-286 -408,-534l0 -2632c0,-273 -221,-498 -493,-503l-4 0 -2219 0c-20,0 -36,16 -36,35 0,20 16,36 35,36 255,3 346,225 346,432l0 2632c0,344 280,624 625,624l2144 1z"/>
     <path class="fil3" d="M6369 8171l0 55c0,256 -164,464 -419,467l0 0 2258 0 0 0c255,-3 461,-211 461,-467l0 -55 -2300 0z"/>
     <path class="fil16" d="M8204 8658l-2015 0c132,-86 215,-242 215,-432l0 -20 2230 0 0 20c0,235 -191,429 -427,432l-3 0zm-2254 71l2258 0 3 -1c273,-5 494,-229 494,-502l0 -55c0,-19 -16,-35 -36,-35l-2300 0c-20,0 -35,16 -35,35l0 55c0,252 -158,429 -385,432 -19,0 -35,16 -35,35 0,20 16,36 36,36z"/>
     <polygon class="fil16" points="6762,7205 7335,7205 7335,7134 6762,7134 "/>
     <polygon class="fil16" points="6123,7205 6595,7205 6595,7134 6123,7134 "/>
     <polygon class="fil16" points="6863,7381 7335,7381 7335,7311 6863,7311 "/>
     <polygon class="fil16" points="5787,7381 6696,7381 6696,7311 5787,7311 "/>
     <polygon class="fil16" points="6762,6244 7335,6244 7335,6174 6762,6174 "/>
     <polygon class="fil16" points="6123,6244 6595,6244 6595,6174 6123,6174 "/>
     <polygon class="fil16" points="6863,6420 7335,6420 7335,6350 6863,6350 "/>
     <polygon class="fil16" points="5787,6420 6696,6420 6696,6350 5787,6350 "/>
     <path class="fil16" d="M7300 6921l-1478 0 0 -300 1478 0 0 300zm-1548 70l1618 0 0 -441 -1618 0 0 441z"/>
     <polygon class="fil16" points="6898,6956 6969,6956 6969,6586 6898,6586 "/>
     <polygon class="fil16" points="6443,6956 6514,6956 6514,6586 6443,6586 "/>
     <polygon class="fil16" points="5787,6780 7335,6780 7335,6709 5787,6709 "/>
     <path class="fil16" d="M7300 7899l-1478 0 0 -300 1478 0 0 300zm-1548 71l1618 0 0 -441 -1618 0 0 441z"/>
     <polygon class="fil16" points="6898,7935 6969,7935 6969,7564 6898,7564 "/>
     <polygon class="fil16" points="6443,7935 6514,7935 6514,7564 6443,7564 "/>
     <polygon class="fil16" points="5787,7758 7335,7758 7335,7688 5787,7688 "/>
    </g>
    <g>
     <polygon class="fil8" points="5794,5660 5794,5575 5989,5575 5989,5660 "/>
     <polygon class="fil9" points="6184,5660 6184,5575 5989,5575 5989,5660 "/>
     <polygon class="fil10" points="6184,5660 6184,5575 6379,5575 6379,5660 "/>
     <polygon class="fil11" points="6574,5660 6574,5575 6379,5575 6379,5660 "/>
     <polygon class="fil12" points="6574,5660 6574,5575 6769,5575 6769,5660 "/>
     <polygon class="fil13" points="6964,5660 6964,5575 6769,5575 6769,5660 "/>
     <polygon class="fil14" points="6964,5660 6964,5575 7159,5575 7159,5660 "/>
     <polygon class="fil15" points="7354,5660 7354,5575 7159,5575 7159,5660 "/>
    </g>
   </g>
   <path class="fil15" d="M7303 2856c32,14 65,24 100,29l78 -122 86 114c34,-9 68,-23 99,-40l-19 -142 143 32c21,-27 38,-58 51,-90l-111 -101 140 -72c-1,-33 -7,-65 -16,-97l-162 -7 66 -156c-21,-23 -45,-42 -70,-59l-138 106 -53 -171c-30,-3 -59,-2 -88,2l-38 176 -151 -97c-24,18 -45,38 -64,61l82 157 -170 21c-6,28 -9,56 -9,84 0,3 0,6 1,9l154 64 -108 116c16,30 35,57 57,82l147 -47 -7 148zm136 104l-22 -2c-58,-6 -114,-22 -167,-49l-20 -10 4 -93 -91 29 -15 -15c-40,-40 -73,-87 -96,-139l-10 -21 71 -77 -101 -42 -2 -21c-1,-12 -1,-24 -1,-36 0,-42 5,-84 17,-125l6 -23 116 -14 -56 -108 14 -18c32,-42 70,-78 113,-107l19 -13 106 68 27 -123 22 -4c51,-10 101,-12 156,-5l22 3 36 118 96 -73 20 12c47,26 88,61 123,101l14 17 -44 104 109 5 8 22c19,52 28,107 28,163l0 23 -19 10 -69 35 70 65 -8 22c-18,55 -47,106 -85,150l-13 17 -87 -20 11 86 -18 12c-50,33 -105,55 -163,67l-22 4 -52 -69 -47 74z"/>
   <path class="fil15" d="M7465 2396c-48,0 -87,39 -87,87 0,48 39,87 87,87 48,0 87,-39 87,-87 0,-48 -39,-87 -87,-87zm0 244c-87,0 -157,-70 -157,-157 0,-87 70,-157 157,-157 87,0 157,70 157,157 0,87 -70,157 -157,157z"/>
  </g>
 </g>
</svg>
